<svg viewBox="0 0 200 200" xmlns="http://www.w3.org/2000/svg">
  <path fill="#FF0066" d="M41.6,-73C55.1,-64.3,67.9,-55.5,77,-43.3C86.1,-31.1,91.4,-15.5,89.6,-1C87.9,13.5,79.1,27.1,68.7,36.9C58.3,46.8,46.2,52.9,34.4,57.8C22.7,62.8,11.4,66.5,-1.5,69.1C-14.3,71.7,-28.7,73.1,-41.7,68.9C-54.7,64.7,-66.4,54.9,-70.2,42.5C-74.1,30,-70.1,15,-70,0.1C-69.9,-14.9,-73.6,-29.7,-69.4,-41.6C-65.2,-53.5,-53.2,-62.5,-40.4,-71.5C-27.5,-80.6,-13.7,-89.7,0.2,-90C14.1,-90.3,28.2,-81.7,41.6,-73Z" transform="translate(100 100)" />
</svg>